<svg width="172" height="23" viewBox="0 0 172 23" fill="none" xmlns="http://www.w3.org/2000/svg">
<g opacity="0.6">
<path fill-rule="evenodd" clip-rule="evenodd" d="M81.966 11.1675C81.966 17.2426 77.0412 22.1675 70.9661 22.1675C64.8909 22.1675 59.9661 17.2426 59.9661 11.1675C59.9661 5.09234 64.8909 0.16748 70.9661 0.16748C77.0412 0.16748 81.966 5.09234 81.966 11.1675ZM67.2661 13.6478C67.6717 13.9516 68.1621 14.1208 68.6687 14.1317C68.3607 14.3776 68.0224 14.5828 67.6621 14.7424C66.8682 15.0917 65.9999 15.2378 65.1354 15.1677C65.1411 15.184 65.1522 15.1978 65.1668 15.2071C65.9987 15.7207 66.9305 16.0514 67.9001 16.1771C68.7627 16.2914 69.6388 16.2484 70.4861 16.0504C71.8547 15.7475 73.0866 15.0054 73.9941 13.9371C75.1749 12.5921 75.8032 10.8501 75.7527 9.06106C75.7501 9.03099 75.7557 9.00075 75.7692 8.9737C75.7826 8.94664 75.8032 8.92382 75.8287 8.90773C76.0229 8.76589 76.2045 8.60752 76.3714 8.4344C76.4747 8.3264 76.5787 8.21373 76.6747 8.09773C76.7422 8.01627 76.805 7.93087 76.8678 7.84545C76.8944 7.80922 76.9211 7.773 76.9481 7.73707C76.5228 7.90582 76.0772 8.01789 75.6227 8.0704C75.8562 7.91163 76.0641 7.71832 76.2394 7.49707C76.4187 7.27255 76.5521 7.01501 76.6321 6.73907C76.4062 6.87461 76.1691 6.99058 75.9234 7.08573C75.6814 7.17845 75.433 7.25331 75.1801 7.30973C75.1517 7.31892 75.1211 7.31946 75.0924 7.31126C75.0637 7.30307 75.038 7.28653 75.0187 7.26373C74.6656 6.90499 74.2053 6.67097 73.7074 6.59707C73.2793 6.51737 72.8375 6.55742 72.4307 6.71282C72.024 6.86821 71.668 7.13291 71.4021 7.47773C71.1751 7.75176 71.0134 8.07372 70.9289 8.41935C70.8445 8.76499 70.8397 9.12528 70.9147 9.47306C70.9241 9.53373 70.9287 9.5644 70.8481 9.55773C70.4964 9.53304 70.1469 9.48381 69.8021 9.4104C68.298 9.08465 66.9452 8.26719 65.9574 7.08707C65.9525 7.08133 65.948 7.0748 65.9435 7.06817C65.929 7.04708 65.9139 7.02507 65.8814 7.02507C65.576 7.55432 65.483 8.17987 65.6214 8.77506C65.7575 9.3825 66.1208 9.91487 66.6368 10.2631C66.2553 10.2496 65.882 10.1483 65.5461 9.96706C65.5357 10.1957 65.5627 10.4245 65.6261 10.6444C65.6841 10.8574 65.7719 11.0612 65.8868 11.2497C66.0026 11.4426 66.1444 11.6187 66.3081 11.7731C66.4692 11.9242 66.6497 12.0533 66.8448 12.1571C67.0461 12.2608 67.2598 12.3385 67.4807 12.3884C67.1306 12.4812 66.7646 12.4981 66.4074 12.4377C66.5603 12.9208 66.8606 13.344 67.2661 13.6478Z" fill="white"/>
<path fill-rule="evenodd" clip-rule="evenodd" d="M52.0525 11.1675C52.0525 17.2426 47.1277 22.1675 41.0525 22.1675C34.9774 22.1675 30.0526 17.2426 30.0526 11.1675C30.0526 5.09234 34.9774 0.16748 41.0525 0.16748C47.1277 0.16748 52.0525 5.09234 52.0525 11.1675ZM45.48 7.50348C45.7121 7.67692 45.8801 7.92229 45.958 8.20129C46.049 8.5188 46.1116 8.84378 46.1451 9.17237C46.1816 9.42613 46.2002 9.68207 46.2188 9.93701C46.2258 10.0324 46.2328 10.1276 46.2406 10.2225V11.9629C46.2349 12.0185 46.2297 12.0748 46.2245 12.1311C46.2146 12.2385 46.2046 12.3466 46.1911 12.4526C46.1502 12.9392 46.0794 13.4229 45.9793 13.9009C45.9138 14.2059 45.7424 14.4779 45.4956 14.6686C45.2487 14.8593 44.9423 14.9564 44.6306 14.9428C44.0875 14.9683 43.5446 14.9901 43.0017 15.012C42.752 15.022 42.5023 15.0321 42.2525 15.0425C42.1919 15.0455 42.1338 15.0551 42.0746 15.0649C42.0525 15.0685 42.0302 15.0722 42.0076 15.0755H40.0985C39.9979 15.0695 39.8973 15.0624 39.7963 15.0553C39.6914 15.048 39.5861 15.0406 39.4802 15.0342C39.2092 15.0192 38.9378 15.0069 38.6663 14.9945C38.1186 14.9696 37.5703 14.9447 37.0236 14.8974C36.7615 14.887 36.5096 14.7924 36.3054 14.6275C36.1013 14.4627 35.9557 14.2365 35.8903 13.9823C35.8089 13.6768 35.748 13.3662 35.708 13.0526C35.6757 12.8282 35.658 12.6022 35.6403 12.3768C35.6327 12.2809 35.6252 12.1852 35.6166 12.0897V10.0951C35.622 10.0456 35.627 9.99621 35.632 9.94685C35.6422 9.84668 35.6523 9.74669 35.6661 9.6467C35.7143 9.17506 35.7877 8.70635 35.8862 8.24259C35.9544 7.95291 36.1201 7.69548 36.3556 7.51342C36.591 7.33137 36.8819 7.23576 37.1794 7.24261C37.7042 7.21717 38.2289 7.19533 38.7537 7.17349C38.9959 7.16341 39.2381 7.15333 39.4802 7.1429C39.5514 7.13981 39.6228 7.12977 39.6943 7.11972C39.7183 7.11635 39.7424 7.11298 39.7664 7.10986H42.0902C42.1143 7.11298 42.1384 7.11635 42.1625 7.11973C42.2344 7.12977 42.3061 7.13981 42.3746 7.1429C42.6168 7.15333 42.859 7.16341 43.1011 7.17349C43.6259 7.19533 44.1507 7.21717 44.6755 7.24261C44.9651 7.23832 45.248 7.33005 45.48 7.50348ZM39.6089 9.08919V13.0939C40.2598 12.7044 40.9006 12.3203 41.5466 11.9331C42.0082 11.6564 42.4725 11.3781 42.9451 11.0951C42.492 10.8223 42.0455 10.5544 41.6017 10.2881C40.9359 9.88862 40.2761 9.49273 39.6089 9.08919Z" fill="white"/>
<path fill-rule="evenodd" clip-rule="evenodd" d="M111.88 11.1675C111.88 17.2426 106.955 22.1675 100.88 22.1675C94.8045 22.1675 89.8796 17.2426 89.8796 11.1675C89.8796 5.09234 94.8045 0.16748 100.88 0.16748C106.955 0.16748 111.88 5.09234 111.88 11.1675ZM102.156 8.3068C101.824 8.30214 101.639 8.45014 101.639 8.79214C101.637 8.99716 101.638 9.20161 101.638 9.42211C101.639 9.5386 101.639 9.65957 101.639 9.78747H103.194C103.143 10.3129 103.096 10.794 103.048 11.2859C103.039 11.3782 103.029 11.4708 103.02 11.5641H101.644V16.4801L99.571 16.4801V11.5848H98.6123V9.8148H99.557V8.80747C99.569 7.34547 100.322 6.59681 101.789 6.59214H103.131V8.3068C103.021 8.3068 102.913 8.30733 102.805 8.30785C102.591 8.30888 102.378 8.30991 102.156 8.3068Z" fill="white"/>
<path fill-rule="evenodd" clip-rule="evenodd" d="M22.1389 11.1675C22.1389 17.2426 17.214 22.1675 11.1389 22.1675C5.06378 22.1675 0.138916 17.2426 0.138916 11.1675C0.138916 5.09234 5.06378 0.16748 11.1389 0.16748C17.214 0.16748 22.1389 5.09234 22.1389 11.1675ZM16.4877 10.6352V10.6358V10.6365C16.487 10.8143 16.4864 10.9918 16.4864 11.1689C16.4919 11.1712 16.4971 11.1744 16.5017 11.1783L16.497 11.5625L16.497 11.5632C16.4909 12.0726 16.4849 12.5825 16.4737 13.0916C16.4754 13.5114 16.4257 13.9299 16.3257 14.3376C16.2286 14.7378 16.0426 15.1109 15.7816 15.4293C15.5205 15.7478 15.191 16.0033 14.8177 16.1769C14.5002 16.3267 14.16 16.4225 13.811 16.4603C13.245 16.5154 12.6763 16.5377 12.1077 16.5269C11.2584 16.5289 10.4097 16.5289 9.56103 16.5169C9.19257 16.5137 8.82453 16.4915 8.45836 16.4503C7.81247 16.392 7.2042 16.121 6.72903 15.6796C6.29163 15.2562 5.99945 14.7052 5.89437 14.1056C5.83518 13.7726 5.80374 13.4352 5.80037 13.0969C5.76637 11.9043 5.77237 10.7116 5.79237 9.51961C5.80103 9.17628 5.81903 8.83228 5.85903 8.49095C5.91659 7.85396 6.18119 7.25335 6.61237 6.78095C7.03711 6.33236 7.59515 6.03265 8.2037 5.92628C8.53577 5.86626 8.87226 5.83392 9.2097 5.82962C10.4097 5.79562 11.6097 5.80162 12.8097 5.82162C13.1462 5.82685 13.4821 5.8491 13.8164 5.88828C14.2295 5.9224 14.6301 6.04627 14.9904 6.25122C15.3507 6.45618 15.6619 6.7373 15.9024 7.07495C16.1508 7.43861 16.3165 7.85232 16.3877 8.28695C16.4575 8.70862 16.4905 9.13556 16.4864 9.56295C16.4904 9.91986 16.489 10.2777 16.4877 10.6346V10.6347V10.6352ZM15.4457 13.8549C15.4955 13.5399 15.5196 13.2213 15.5177 12.9023L15.521 12.9009C15.5377 11.6623 15.5457 10.4223 15.5057 9.17961C15.5024 8.89234 15.4709 8.60608 15.4117 8.32495C15.3232 7.89171 15.083 7.50426 14.7344 7.23228C14.4659 7.03702 14.1541 6.90962 13.8257 6.86095C13.5073 6.81102 13.1853 6.78694 12.863 6.78895C11.627 6.77095 10.3904 6.76095 9.15436 6.79895C8.86571 6.80138 8.57804 6.83287 8.2957 6.89295C7.86041 6.98309 7.47196 7.22653 7.20103 7.57895C7.00809 7.84683 6.88213 8.15705 6.8337 8.48361C6.78421 8.79491 6.76035 9.10975 6.76236 9.42495C6.74037 10.6716 6.73237 11.9143 6.77036 13.1583C6.77269 13.4456 6.80418 13.732 6.86436 14.0129C6.95414 14.4513 7.20064 14.8419 7.5577 15.1116C7.82331 15.3022 8.13083 15.4261 8.45436 15.4729C8.79213 15.5265 9.13371 15.5524 9.47569 15.5503C9.84316 15.5543 10.2115 15.5529 10.5802 15.5516H10.5802H10.5802L10.5808 15.5516C10.765 15.5509 10.9494 15.5503 11.1337 15.5503V15.5689L11.1533 15.5686C11.7981 15.5587 12.4442 15.5488 13.089 15.5369C13.3905 15.5369 13.6911 15.5048 13.9857 15.4409C14.388 15.3569 14.7511 15.1419 15.0184 14.8296C15.2462 14.5493 15.3939 14.2125 15.4457 13.8549ZM11.1417 8.41695C10.5975 8.41629 10.0653 8.57702 9.61251 8.87882C9.15968 9.18062 8.80652 9.60994 8.59769 10.1125C8.38886 10.615 8.33374 11.1682 8.43931 11.702C8.54487 12.2359 8.80639 12.7264 9.19077 13.1116C9.57515 13.4969 10.0651 13.7594 10.5987 13.8662C11.1324 13.9729 11.6857 13.919 12.1886 13.7113C12.6916 13.5035 13.1217 13.1513 13.4245 12.6991C13.7273 12.2469 13.8892 11.7151 13.8897 11.1709C13.8888 10.4418 13.5992 9.74277 13.0842 9.22666C12.5692 8.71055 11.8708 8.41942 11.1417 8.41695ZM11.1357 12.9543C10.7825 12.9535 10.4375 12.8479 10.1443 12.651C9.8511 12.4541 9.6229 12.1746 9.48856 11.848C9.35422 11.5214 9.3198 11.1622 9.38962 10.816C9.45945 10.4698 9.63039 10.152 9.88083 9.90299C10.1313 9.65395 10.45 9.48479 10.7966 9.41691C11.1432 9.34902 11.5021 9.38546 11.828 9.52162C12.1539 9.65779 12.4321 9.88755 12.6274 10.1818C12.8226 10.4761 12.9262 10.8218 12.925 11.1749C12.9231 11.648 12.7336 12.101 12.3982 12.4345C12.0628 12.7681 11.6088 12.955 11.1357 12.9543ZM13.6397 7.77817C13.7449 7.70711 13.8688 7.66883 13.9957 7.66817C14.0801 7.66755 14.1638 7.68363 14.242 7.71547C14.3202 7.7473 14.3913 7.79428 14.4513 7.85369C14.5112 7.9131 14.5589 7.98378 14.5914 8.06166C14.624 8.13954 14.6409 8.22309 14.641 8.3075C14.6416 8.43445 14.6044 8.5587 14.5344 8.66455C14.4643 8.7704 14.3644 8.85311 14.2473 8.9022C14.1303 8.9513 14.0013 8.96459 13.8766 8.94038C13.752 8.91618 13.6374 8.85558 13.5472 8.76624C13.457 8.67689 13.3954 8.56282 13.37 8.43843C13.3446 8.31404 13.3567 8.18493 13.4047 8.06741C13.4527 7.94989 13.5345 7.84924 13.6397 7.77817Z" fill="white"/>
<path fill-rule="evenodd" clip-rule="evenodd" d="M141.793 11.1675C141.793 17.2426 136.868 22.1675 130.793 22.1675C124.718 22.1675 119.793 17.2426 119.793 11.1675C119.793 5.09234 124.718 0.16748 130.793 0.16748C136.868 0.16748 141.793 5.09234 141.793 11.1675ZM127.492 9.26961C127.494 9.29076 127.495 9.31201 127.486 9.33239C127.467 9.34047 127.45 9.33584 127.432 9.3314C127.43 9.33066 127.427 9.32992 127.424 9.32925C127.288 9.2963 127.149 9.28924 127.011 9.30337C126.72 9.33239 126.474 9.45321 126.292 9.68699C126.013 10.0463 126.009 10.5523 126.279 10.9305C126.398 11.0968 126.55 11.2278 126.718 11.3408C126.803 11.3977 126.889 11.4534 126.975 11.5092C127.04 11.5517 127.105 11.5942 127.171 11.6373C127.326 11.7401 127.34 11.7919 127.256 11.9621C127.122 12.2343 126.946 12.476 126.734 12.6925C126.428 13.0063 126.071 13.2503 125.679 13.4448C125.579 13.495 125.478 13.5453 125.387 13.6112C125.034 13.863 124.961 14.2921 125.213 14.6451C125.318 14.7926 125.454 14.904 125.612 14.9919C125.835 15.1159 126.068 15.2139 126.315 15.2767C126.462 15.3143 126.553 15.3889 126.606 15.5371C126.703 15.8117 126.905 15.9843 127.184 16.0667C127.326 16.1083 127.472 16.12 127.618 16.1263C127.64 16.1272 127.661 16.128 127.683 16.1289C127.836 16.1348 127.989 16.1407 128.142 16.1593C128.424 16.1938 128.697 16.2628 128.94 16.4189C128.999 16.4572 129.06 16.4935 129.121 16.5299C129.161 16.5539 129.201 16.5779 129.241 16.6025C129.729 16.903 130.257 17.074 130.832 17.096C131.438 17.1187 132.01 16.9956 132.544 16.7014C132.684 16.6243 132.82 16.5413 132.956 16.4582C132.985 16.4406 133.014 16.4231 133.043 16.4056C133.201 16.3091 133.37 16.244 133.55 16.204C133.787 16.1514 134.027 16.1365 134.267 16.1287C134.392 16.1247 134.517 16.1177 134.641 16.0957C134.987 16.0353 135.24 15.8549 135.36 15.5175C135.406 15.3912 135.483 15.3151 135.612 15.2885C135.625 15.2861 135.637 15.2822 135.65 15.2783C135.905 15.2053 136.149 15.1072 136.379 14.9746C136.539 14.8821 136.675 14.762 136.776 14.6036C136.987 14.2701 136.914 13.8708 136.601 13.6323C136.521 13.5719 136.435 13.5217 136.346 13.4786C136.089 13.3538 135.844 13.2095 135.616 13.0369C135.231 12.7443 134.915 12.3944 134.7 11.9582C134.684 11.926 134.67 11.8923 134.66 11.857C134.64 11.7879 134.659 11.733 134.713 11.6891C134.731 11.6742 134.751 11.6608 134.77 11.6483C134.851 11.595 134.932 11.5421 135.013 11.4891C135.093 11.4362 135.174 11.3832 135.255 11.3298C135.364 11.2576 135.465 11.1744 135.556 11.0795C135.781 10.8426 135.903 10.5649 135.874 10.2338C135.845 9.90431 135.698 9.64071 135.416 9.46027C135.181 9.30964 134.921 9.27591 134.648 9.30807C134.624 9.31092 134.601 9.31605 134.578 9.32117C134.543 9.32876 134.509 9.33632 134.474 9.33632C134.473 9.33329 134.472 9.33074 134.471 9.32851C134.469 9.32438 134.467 9.32133 134.467 9.31827V9.25551C134.47 8.89228 134.458 8.52905 134.4 8.16895C134.343 7.81278 134.241 7.47073 134.062 7.15614C133.634 6.40379 132.999 5.90326 132.182 5.63182C131.651 5.45452 131.105 5.4098 130.549 5.46786C130.073 5.51807 129.62 5.64673 129.201 5.87894C128.215 6.42732 127.649 7.2597 127.528 8.38626C127.498 8.67261 127.49 8.95975 127.492 9.24766C127.492 9.25494 127.492 9.26227 127.492 9.26961Z" fill="white"/>
<path fill-rule="evenodd" clip-rule="evenodd" d="M171.707 11.1675C171.707 17.2426 166.782 22.1675 160.707 22.1675C154.632 22.1675 149.707 17.2426 149.707 11.1675C149.707 5.09234 154.632 0.16748 160.707 0.16748C166.782 0.16748 171.707 5.09234 171.707 11.1675ZM163.028 8.6835V8.48314C163.049 8.51139 163.067 8.5349 163.083 8.55568C163.109 8.5887 163.129 8.61483 163.149 8.64216C163.887 9.56128 164.858 10.0033 166.058 9.99063C166.196 9.98745 166.242 9.94928 166.238 9.80617C166.229 9.22734 166.225 8.64852 166.238 8.07288C166.242 7.91704 166.186 7.88524 166.045 7.86616C164.487 7.66579 163.287 6.51769 163.07 5.01656C163.057 4.91161 163.018 4.90207 162.929 4.90207C162.782 4.90207 162.635 4.90259 162.488 4.90311C162.122 4.90441 161.756 4.9057 161.388 4.89889C161.244 4.89571 161.201 4.92751 161.201 5.07699C161.201 6.21301 161.199 7.34903 161.197 8.48505C161.194 10.1891 161.19 11.8931 161.194 13.5971C161.194 14.8375 159.997 15.7566 158.748 15.5403C157.626 15.3463 156.931 14.3445 157.131 13.2473C157.302 12.3091 158.269 11.5935 159.237 11.6953C159.341 11.7048 159.341 11.6667 159.341 11.5935C159.341 11.455 159.341 11.3167 159.341 11.1786C159.34 10.7647 159.34 10.3522 159.345 9.93974C159.345 9.84751 159.312 9.82525 159.223 9.82525C159.007 9.82525 158.787 9.82843 158.571 9.85705C156.41 10.1369 154.894 12.096 155.222 14.1887C155.606 16.6439 158.249 18.091 160.611 17.1369C162.06 16.5517 163.024 15.1682 163.028 13.6417C163.03 12.5393 163.029 11.4383 163.028 10.3368C163.028 9.78591 163.028 9.23488 163.028 8.6835Z" fill="white"/>
</g>
</svg>
