<svg width="23" height="22" viewBox="0 0 23 22" fill="none" xmlns="http://www.w3.org/2000/svg">
<path d="M12.4346 5.93989C13.527 6.1274 14.5256 6.64415 15.3214 7.43781C16.1129 8.22928 16.6319 9.22789 16.8194 10.3224C16.8913 10.7542 17.262 11.0659 17.7002 11.0659C17.7569 11.0659 17.8071 11.0594 17.842 11.0529C17.8441 11.0529 17.8463 11.0529 17.8485 11.0507C18.0862 11.0114 18.2933 10.8828 18.4307 10.6844C18.568 10.4881 18.6204 10.2527 18.5789 10.0194C18.3304 8.55852 17.6414 7.22849 16.5839 6.17101C15.522 5.11353 14.1898 4.42453 12.7312 4.17815H12.729C12.2428 4.09747 11.7827 4.42671 11.702 4.91075C11.6257 5.39916 11.9528 5.85922 12.4346 5.93989Z" fill="#FF8585"/>
<path d="M17.9313 13.4259C17.4429 12.9179 16.8521 12.6497 16.2219 12.6497C15.5983 12.6497 15.0031 12.9135 14.5038 13.415L13.2632 14.6557C13.2326 14.6404 13.2021 14.6251 13.1738 14.6099L13.1105 14.5793C12.9775 14.5118 12.8249 14.4354 12.6984 14.3569C11.4251 13.548 10.263 12.4884 9.14226 11.1147C8.66258 10.5108 8.3268 9.99838 8.08042 9.48818C8.39221 9.19383 8.6822 8.89948 8.95475 8.62039C9.0158 8.55934 9.07685 8.49611 9.14008 8.43288C9.20113 8.36965 9.26436 8.30641 9.32759 8.24318C9.84652 7.72426 10.1212 7.12247 10.1191 6.50325C10.1191 5.8862 9.84434 5.2866 9.32759 4.77203L8.12184 3.56629C8.05207 3.49651 7.9823 3.42674 7.91471 3.35697C7.84712 3.2872 7.77735 3.21743 7.70975 3.14983L7.61382 3.05172C7.37616 2.8097 7.12978 2.55895 6.88121 2.33001C6.39717 1.84815 5.81065 1.59305 5.18924 1.59305C4.57002 1.59305 3.97914 1.84815 3.47547 2.33001C3.47329 2.33219 3.47111 2.33219 3.47111 2.33437L1.96011 3.84319C1.34307 4.46024 0.992026 5.21247 0.915713 6.07807V6.08025C0.835039 7.10503 1.02037 8.18649 1.50005 9.48382C2.22612 11.4462 3.3163 13.2646 4.9276 15.2051C6.89429 17.549 9.25564 19.398 11.944 20.6997H11.9462C12.9819 21.1946 14.373 21.7746 15.9428 21.8771C15.945 21.8771 15.9472 21.8771 15.9494 21.8771H15.9603C16.0497 21.8814 16.1434 21.8858 16.2416 21.8858C17.3426 21.8858 18.2715 21.4868 18.9997 20.6997L19.0106 20.6887C19.0193 20.68 19.0259 20.6735 19.0324 20.6648C19.2505 20.4031 19.5012 20.1611 19.7825 19.8907C19.9765 19.7054 20.1749 19.5157 20.3668 19.3108C20.8618 18.794 21.1234 18.1922 21.1212 17.5708C21.119 16.9472 20.853 16.352 20.3516 15.8505L17.9313 13.4259ZM17.6915 19.5026C17.3034 19.9169 16.8586 20.1022 16.2525 20.1022C16.1958 20.1022 16.1325 20.0979 16.0671 20.0935C14.8112 20.0128 13.6229 19.5157 12.729 19.0905C10.2608 17.9022 8.09786 16.2103 6.29905 14.0604C4.8273 12.2878 3.83523 10.6351 3.17894 8.86459C2.78647 7.81147 2.63821 6.99601 2.69926 6.22634C2.7385 5.77718 2.90639 5.4196 3.22691 5.10345L4.727 3.60335C4.88399 3.45291 5.04534 3.37223 5.19578 3.37223C5.33751 3.37223 5.48795 3.45073 5.64712 3.60553C5.6493 3.60771 5.65148 3.60989 5.65366 3.61207C5.91313 3.85627 6.16605 4.11356 6.43424 4.38392L6.44296 4.39265C6.5716 4.52565 6.71987 4.67827 6.87031 4.82436L8.07388 6.02793C8.42492 6.37897 8.42492 6.62535 8.07388 6.97639C7.94741 7.10285 7.81877 7.23149 7.69231 7.36231L7.60292 7.45389C7.26496 7.79621 6.94662 8.1189 6.59994 8.42633C6.59558 8.4307 6.58904 8.43506 6.58468 8.4416L6.56288 8.4634C6.1944 8.83188 6.0941 9.27232 6.26635 9.76944C6.27071 9.78253 6.27507 9.79343 6.27943 9.80433C6.28161 9.81087 6.28379 9.81741 6.28815 9.82395C6.61085 10.6023 7.06436 11.3415 7.76208 12.2245C7.76208 12.2267 7.76426 12.2267 7.76426 12.2289C9.00272 13.753 10.3088 14.9435 11.7587 15.8636C11.9484 15.9835 12.1446 16.0838 12.3278 16.1754C12.463 16.243 12.6156 16.3215 12.7421 16.3978C12.7508 16.4043 12.7595 16.4087 12.7682 16.413L12.7748 16.4174C12.7878 16.4239 12.8009 16.4327 12.8162 16.4392C13.0059 16.5351 13.1934 16.5809 13.3874 16.5809C13.7189 16.5809 14.0241 16.4436 14.2705 16.1841L15.7793 14.6753C15.8883 14.5663 16.0584 14.4354 16.2372 14.4354C16.4029 14.4354 16.5642 14.5641 16.6689 14.6731C16.6711 14.6753 16.6711 14.6753 16.6733 14.6775L19.1087 17.1129C19.3486 17.3528 19.5121 17.6362 19.0891 18.081L19.0869 18.0832C18.9539 18.2271 18.8122 18.3645 18.6618 18.5106C18.6291 18.5411 18.5964 18.5738 18.5636 18.6065C18.2584 18.8921 17.9662 19.1756 17.6915 19.5026Z" fill="#FF8585"/>
<path d="M22.3703 9.84539C21.9691 7.48405 20.8528 5.32984 19.1412 3.61825C17.4231 1.90447 15.2689 0.788124 12.9053 0.389116C12.4191 0.308442 11.959 0.637679 11.8784 1.12172C11.7977 1.60794 12.1269 2.068 12.6088 2.14868C14.6082 2.48881 16.4288 3.4351 17.8766 4.88068C19.3243 6.32845 20.2684 8.14906 20.6086 10.1463C20.6805 10.578 21.0512 10.8898 21.4895 10.8898C21.4916 10.8898 21.4938 10.8898 21.496 10.8898C21.5505 10.8898 21.5963 10.8832 21.6312 10.8767C21.6334 10.8767 21.6355 10.8767 21.6377 10.8745C21.8754 10.8353 22.0825 10.7066 22.2199 10.5082C22.3594 10.3142 22.4118 10.0787 22.3703 9.84539Z" fill="#FF8585"/>
</svg>
