<svg width="153" height="16" viewBox="0 0 153 16" fill="none" xmlns="http://www.w3.org/2000/svg">
<path d="M4.134 4.52478H0L0 1.22617L12.1499 1.22617V4.52478H8.01592L8.01592 14.7652L4.134 14.7652L4.134 4.52478Z" fill="#FF8585"/>
<path d="M13.8135 1.22614L17.645 1.22614V6.29714L22.5856 6.29714V1.22614L26.4171 1.22614V14.7652H22.5856V9.64498L17.645 9.64498L17.645 14.7652H13.8135L13.8135 1.22614Z" fill="#FF8585"/>
<path d="M33.2735 1.17691L36.9538 1.17691L42.9027 14.7652H38.7687L37.7604 12.3528L32.4165 12.3528L31.4082 14.7652H27.375L33.2735 1.17691ZM36.6513 9.44805L35.0884 5.60788L33.5256 9.44805H36.6513Z" fill="#FF8585"/>
<path d="M45.4742 9.69421L40.1807 1.22614L44.5667 1.22614L47.4404 6.14944L50.314 1.22614L54.5992 1.22614L49.3057 9.64498V14.7652L45.4238 14.7652V9.69421H45.4742Z" fill="#FF8585"/>
<path d="M55.7588 1.22614L59.3382 1.22614L65.0351 8.36492V1.22614L68.8162 1.22614V14.7652H65.4384L59.5399 7.38026V14.7652H55.7588V1.22614Z" fill="#FF8585"/>
<path d="M76.0758 1.17691L79.756 1.17691L85.705 14.7652H81.571L80.5627 12.3528L75.2187 12.3528L74.2104 14.7652H70.1772L76.0758 1.17691ZM79.4535 9.44805L77.8907 5.60788L76.3278 9.44805H79.4535Z" fill="#FF8585"/>
<path d="M87.0659 1.22614L93.6198 1.22614C94.6785 1.22614 95.586 1.37383 96.3422 1.62C97.0984 1.86616 97.7034 2.26003 98.1571 2.70312C98.9638 3.49085 99.3671 4.52474 99.3671 5.85404V5.90327C99.3671 6.93716 99.115 7.82335 98.6109 8.51262C98.1067 9.20188 97.4009 9.69421 96.5439 10.0881L99.8712 14.8144H95.4347L92.6619 10.7281H92.6115L90.9478 10.7281V14.7652H87.1163V1.22614H87.0659ZM93.4182 7.72489C94.0736 7.72489 94.5777 7.57719 94.9306 7.28179C95.2835 6.98639 95.4852 6.59253 95.4852 6.1002V6.05097C95.4852 5.5094 95.2835 5.11554 94.9306 4.82014C94.5777 4.57398 94.0736 4.42628 93.4182 4.42628L90.8974 4.42628V7.67566H93.4182V7.72489Z" fill="#FF8585"/>
<path d="M106.072 1.17691L109.753 1.17691L115.651 14.7652H111.517L110.509 12.3528L105.165 12.3528L104.157 14.7652H100.124L106.072 1.17691ZM109.45 9.44805L107.887 5.60788L106.325 9.44805H109.45Z" fill="#FF8585"/>
<path d="M129.465 15.0606C128.406 15.0606 127.398 14.8637 126.49 14.5191C125.583 14.1744 124.776 13.6329 124.121 13.0421C123.465 12.402 122.961 11.6635 122.558 10.8266C122.205 9.98962 122.003 9.05419 122.003 8.11876V8.06953C122.003 7.08487 122.205 6.19868 122.558 5.31248C122.911 4.47552 123.465 3.68779 124.121 3.04777C124.776 2.40774 125.583 1.91541 126.49 1.52154C127.398 1.17691 128.406 0.97998 129.465 0.97998C130.523 0.97998 131.532 1.17691 132.439 1.52154C133.347 1.86617 134.153 2.40774 134.809 2.99853C135.464 3.63856 135.968 4.37706 136.371 5.21402C136.724 6.05098 136.926 6.98641 136.926 7.92183V7.97107C136.926 8.95572 136.724 9.84192 136.371 10.7281C136.019 11.5651 135.464 12.3528 134.809 12.9928C134.153 13.6329 133.347 14.1252 132.439 14.5191C131.532 14.8637 130.523 15.0606 129.465 15.0606ZM129.465 11.6635C129.969 11.6635 130.473 11.5651 130.927 11.3681C131.38 11.1712 131.733 10.925 132.036 10.5804C132.338 10.2358 132.59 9.89115 132.742 9.44806C132.893 9.00496 132.994 8.56186 132.994 8.06953V8.0203C132.994 7.52797 132.893 7.08487 132.742 6.64177C132.59 6.19868 132.338 5.80481 131.985 5.46018C131.683 5.11555 131.28 4.86939 130.876 4.67245C130.423 4.47552 129.969 4.37706 129.414 4.37706C128.86 4.37706 128.406 4.47552 127.952 4.67245C127.498 4.86939 127.146 5.11555 126.843 5.46018C126.541 5.80481 126.289 6.14944 126.137 6.59254C125.986 7.03564 125.885 7.47873 125.885 7.97107V8.0203C125.885 8.51263 125.986 8.95573 126.137 9.39882C126.289 9.84192 126.541 10.2358 126.843 10.5804C127.146 10.925 127.549 11.1712 127.952 11.3681C128.456 11.5651 128.961 11.6635 129.465 11.6635Z" fill="#FF8585"/>
<path d="M146 15.0606C144.942 15.0606 143.933 14.9129 143.026 14.5683C142.119 14.2237 141.312 13.7313 140.656 13.1405C140.001 12.5005 139.447 11.762 139.094 10.925C138.69 10.0881 138.539 9.10342 138.539 8.06953V8.0203C138.539 7.03564 138.741 6.10021 139.094 5.26325C139.447 4.42629 140.001 3.63856 140.656 2.99853C141.312 2.3585 142.119 1.86617 143.026 1.52154C143.933 1.17691 144.942 0.97998 146 0.97998C147.21 0.97998 148.269 1.17691 149.177 1.52154C150.084 1.86617 150.891 2.3585 151.596 2.9493L149.328 5.60788C148.824 5.21402 148.32 4.86939 147.815 4.67245C147.311 4.47552 146.706 4.32782 146 4.32782C145.496 4.32782 145.043 4.42629 144.589 4.62322C144.135 4.82015 143.782 5.06632 143.48 5.41095C143.177 5.75558 142.925 6.14944 142.723 6.59254C142.522 7.03564 142.471 7.52797 142.471 8.0203V8.06953C142.471 8.61109 142.572 9.10342 142.774 9.59575C142.976 10.0389 143.228 10.4327 143.581 10.7773C143.933 11.122 144.337 11.3681 144.79 11.5651C145.244 11.762 145.748 11.8605 146.303 11.8605C147.21 11.8605 147.967 11.6635 148.521 11.3189V9.69422H145.799V6.88794L152.151 6.88794V12.9928C151.395 13.5836 150.538 14.076 149.529 14.4698C148.42 14.8637 147.261 15.0606 146 15.0606Z" fill="#FF8585"/>
</svg>
