<svg width="24" height="18" viewBox="0 0 24 18" fill="none" xmlns="http://www.w3.org/2000/svg">
<path d="M20.971 17.9056H2.69021C1.27905 17.9056 0.131836 16.7583 0.131836 15.3472V2.91579C0.131836 1.50463 1.27905 0.357422 2.69021 0.357422H20.971C22.3821 0.357422 23.5293 1.50463 23.5293 2.91579V15.3472C23.5293 16.7583 22.3821 17.9056 20.971 17.9056ZM2.69021 1.81977C2.08553 1.81977 1.59418 2.31111 1.59418 2.91579V15.3472C1.59418 15.9511 2.08553 16.4432 2.69021 16.4432H20.971C21.5749 16.4432 22.067 15.9511 22.067 15.3472V2.91579C22.067 2.31111 21.5749 1.81977 20.971 1.81977H2.69021ZM11.8306 11.6723C11.3897 11.6723 10.9495 11.5122 10.5978 11.1934L3.29562 4.55435C2.99657 4.28308 2.97536 3.82025 3.24663 3.5212C3.51863 3.22289 3.97999 3.20095 4.27978 3.47222L11.582 10.1105C11.7231 10.2407 11.9373 10.2399 12.0792 10.1113L19.3814 3.47222C19.6797 3.20095 20.1433 3.22289 20.4146 3.5212C20.6858 3.82025 20.6639 4.28308 20.3656 4.55435L13.0633 11.1934C12.7117 11.5122 12.2715 11.6723 11.8306 11.6723ZM3.7877 14.9809C3.60052 14.9809 3.41334 14.9092 3.27076 14.7666C2.98487 14.4807 2.98487 14.0186 3.27076 13.7328L8.38896 8.61455C8.67485 8.32866 9.13695 8.32866 9.42284 8.61455C9.70873 8.90044 9.70873 9.36254 9.42284 9.64843L4.30464 14.7666C4.16206 14.9092 3.97488 14.9809 3.7877 14.9809ZM19.8735 14.9809C19.6863 14.9809 19.4991 14.9092 19.3565 14.7666L14.2383 9.64843C13.9525 9.36254 13.9525 8.90044 14.2383 8.61455C14.5242 8.32866 14.9863 8.32866 15.2722 8.61455L20.3904 13.7328C20.6763 14.0186 20.6763 14.4807 20.3904 14.7666C20.2478 14.9092 20.0607 14.9809 19.8735 14.9809Z" fill="#FF8585"/>
</svg>
